<svg xmlns="http://www.w3.org/2000/svg" viewBox="0 0 128 128">
  <defs>
    <linearGradient id="bg" x1="0%" y1="0%" x2="0%" y2="100%">
      <stop offset="0%" style="stop-color:#62a0ea;stop-opacity:1" />
      <stop offset="100%" style="stop-color:#1a5fb4;stop-opacity:1" />
    </linearGradient>
    <linearGradient id="camera" x1="0%" y1="0%" x2="0%" y2="100%">
      <stop offset="0%" style="stop-color:#f5f5f5;stop-opacity:1" />
      <stop offset="100%" style="stop-color:#e0e0e0;stop-opacity:1" />
    </linearGradient>
    <linearGradient id="ring" x1="0%" y1="0%" x2="0%" y2="100%">
      <stop offset="0%" style="stop-color:#7dd3fc;stop-opacity:1" />
      <stop offset="100%" style="stop-color:#38bdf8;stop-opacity:1" />
    </linearGradient>
    <linearGradient id="lens" x1="0%" y1="0%" x2="0%" y2="100%">
      <stop offset="0%" style="stop-color:#1e3a5f;stop-opacity:1" />
      <stop offset="100%" style="stop-color:#0f172a;stop-opacity:1" />
    </linearGradient>
  </defs>

  <!-- Background rounded square -->
  <rect x="8" y="8" width="112" height="112" rx="28" fill="url(#bg)"/>

  <!-- Camera body -->
  <path d="M 28 34 L 41 34 L 46 46 L 82 46 L 87 34 L 100 34 C 104 34 108 38 108 42 L 108 96 C 108 100 104 104 100 104 L 28 104 C 24 104 20 100 20 96 L 20 42 C 20 38 24 34 28 34 Z" fill="url(#camera)"/>

  <!-- Flash -->
  <rect x="30" y="38" width="11" height="5" rx="1" fill="#d4d4d4"/>

  <!-- Outer ring (cyan) -->
  <circle cx="64" cy="72" r="28" fill="none" stroke="url(#ring)" stroke-width="6"/>

  <!-- Inner lens -->
  <circle cx="64" cy="72" r="22" fill="url(#lens)"/>

  <!-- Lens highlight -->
  <ellipse cx="58" cy="66" rx="6" ry="4" fill="#ffffff" opacity="0.3"/>
  <ellipse cx="62" cy="68" rx="3" ry="2" fill="#ffffff" opacity="0.5"/>
</svg>
